<?xml version="1.0" encoding="utf-8"?>
<!-- Generator: Adobe Illustrator 18.0.0, SVG Export Plug-In . SVG Version: 6.00 Build 0)  -->
<!DOCTYPE svg PUBLIC "-//W3C//DTD SVG 1.1//EN" "http://www.w3.org/Graphics/SVG/1.1/DTD/svg11.dtd">
<svg version="1.1" xmlns="http://www.w3.org/2000/svg" xmlns:xlink="http://www.w3.org/1999/xlink" x="0px" y="0px"
   viewBox="0 0 195.5 140.4" enable-background="new 0 0 195.5 140.4" xml:space="preserve">
<g id="Layer_1">
</g>
<g id="Layer_2">
  <g>
    <path fill="#222" d="M9.6,136.7c0,0.4,0,0.7-0.1,1.1c-0.1,0.3-0.2,0.6-0.4,0.9s-0.4,0.5-0.6,0.7c-0.3,0.2-0.5,0.4-0.8,0.5
      c-0.3,0.1-0.7,0.2-1,0.3c-0.4,0.1-0.8,0.1-1.2,0.1H2.1c-0.1,0-0.3,0-0.4-0.1c-0.1-0.1-0.2-0.3-0.2-0.5v-11c0-0.2,0.1-0.4,0.2-0.5
      c0.1-0.1,0.3-0.1,0.4-0.1h2.8c0.7,0,1.3,0.1,1.8,0.2s0.9,0.3,1.2,0.6c0.3,0.3,0.6,0.6,0.7,1c0.2,0.4,0.2,0.8,0.2,1.3
      c0,0.3,0,0.6-0.1,0.8s-0.2,0.5-0.3,0.7c-0.1,0.2-0.3,0.4-0.5,0.6c-0.2,0.2-0.4,0.3-0.7,0.4c0.3,0.1,0.7,0.2,0.9,0.3
      c0.3,0.2,0.5,0.4,0.8,0.6c0.2,0.3,0.4,0.6,0.5,0.9C9.6,135.8,9.6,136.2,9.6,136.7z M7.2,131.1c0-0.3,0-0.6-0.1-0.8
      s-0.2-0.4-0.4-0.6c-0.2-0.2-0.4-0.3-0.7-0.4c-0.3-0.1-0.7-0.1-1.1-0.1H3.1v4H5c0.4,0,0.8-0.1,1-0.2c0.3-0.1,0.5-0.3,0.6-0.4
      c0.2-0.2,0.3-0.4,0.4-0.7C7.1,131.7,7.2,131.4,7.2,131.1z M7.9,136.7c0-0.4-0.1-0.7-0.2-1s-0.3-0.5-0.5-0.7s-0.5-0.3-0.8-0.4
      c-0.3-0.1-0.8-0.1-1.3-0.1h-2v4.3h2.4c0.4,0,0.7,0,1-0.1s0.5-0.2,0.7-0.4c0.2-0.2,0.4-0.4,0.5-0.7C7.8,137.4,7.9,137.1,7.9,136.7z
      "/>
    <path fill="#222" d="M21.4,139.6c0.1,0.1,0.1,0.3,0.1,0.3c0,0.1,0,0.2-0.1,0.2c-0.1,0-0.1,0.1-0.3,0.1c-0.1,0-0.3,0-0.5,0
      s-0.4,0-0.5,0c-0.1,0-0.2,0-0.3,0c-0.1,0-0.1-0.1-0.1-0.1c0,0-0.1-0.1-0.1-0.1l-1.1-3h-5.1l-1,3c0,0.1,0,0.1-0.1,0.1
      c0,0-0.1,0.1-0.1,0.1c-0.1,0-0.1,0-0.3,0.1c-0.1,0-0.3,0-0.4,0c-0.2,0-0.3,0-0.5,0c-0.1,0-0.2,0-0.2-0.1c0,0-0.1-0.1-0.1-0.2
      c0-0.1,0-0.2,0.1-0.3l4.1-11.4c0-0.1,0.1-0.1,0.1-0.2c0,0,0.1-0.1,0.2-0.1c0.1,0,0.2,0,0.3-0.1c0.1,0,0.3,0,0.5,0
      c0.2,0,0.4,0,0.5,0c0.1,0,0.2,0,0.3,0.1c0.1,0,0.1,0.1,0.2,0.1c0,0,0.1,0.1,0.1,0.2L21.4,139.6z M16.1,129.5L16.1,129.5l-2.1,6.1
      h4.3L16.1,129.5z"/>
    <path fill="#222" d="M30.2,139.5c0,0.1,0,0.2,0,0.3c0,0.1,0,0.2-0.1,0.2c0,0.1-0.1,0.1-0.1,0.1c0,0-0.1,0-0.1,0h-5.4
      c-0.1,0-0.3,0-0.4-0.1c-0.1-0.1-0.2-0.3-0.2-0.5v-11.4c0-0.1,0-0.1,0-0.1s0.1-0.1,0.1-0.1c0.1,0,0.1,0,0.3-0.1c0.1,0,0.2,0,0.4,0
      c0.2,0,0.3,0,0.4,0c0.1,0,0.2,0,0.3,0.1c0.1,0,0.1,0.1,0.1,0.1s0,0.1,0,0.1v10.7h4.4c0.1,0,0.1,0,0.1,0c0,0,0.1,0.1,0.1,0.1
      c0,0.1,0,0.1,0.1,0.2C30.2,139.2,30.2,139.3,30.2,139.5z"/>
    <path fill="#222" d="M38.7,139.5c0,0.1,0,0.2,0,0.3c0,0.1,0,0.2-0.1,0.2c0,0.1-0.1,0.1-0.1,0.1c0,0-0.1,0-0.1,0h-5.4
      c-0.1,0-0.3,0-0.4-0.1c-0.1-0.1-0.2-0.3-0.2-0.5v-11.4c0-0.1,0-0.1,0-0.1s0.1-0.1,0.1-0.1c0.1,0,0.1,0,0.3-0.1c0.1,0,0.2,0,0.4,0
      c0.2,0,0.3,0,0.4,0c0.1,0,0.2,0,0.3,0.1c0.1,0,0.1,0.1,0.1,0.1s0,0.1,0,0.1v10.7h4.4c0.1,0,0.1,0,0.1,0c0,0,0.1,0.1,0.1,0.1
      c0,0.1,0,0.1,0.1,0.2C38.7,139.2,38.7,139.3,38.7,139.5z"/>
    <path fill="#222" d="M47.6,139.5c0,0.1,0,0.2,0,0.3c0,0.1,0,0.2-0.1,0.2c0,0.1-0.1,0.1-0.1,0.1c0,0-0.1,0-0.1,0h-5.9
      c-0.1,0-0.3,0-0.4-0.1c-0.1-0.1-0.2-0.3-0.2-0.5v-11c0-0.2,0.1-0.4,0.2-0.5c0.1-0.1,0.3-0.1,0.4-0.1h5.8c0.1,0,0.1,0,0.1,0
      c0,0,0.1,0.1,0.1,0.1c0,0.1,0,0.1,0.1,0.2c0,0.1,0,0.2,0,0.3c0,0.1,0,0.2,0,0.3c0,0.1,0,0.2-0.1,0.2c0,0.1-0.1,0.1-0.1,0.1
      c0,0-0.1,0-0.1,0h-4.8v3.9h4.1c0.1,0,0.1,0,0.1,0c0,0,0.1,0.1,0.1,0.1c0,0.1,0,0.1,0.1,0.2s0,0.2,0,0.3c0,0.1,0,0.2,0,0.3
      s0,0.1-0.1,0.2c0,0.1-0.1,0.1-0.1,0.1c0,0-0.1,0-0.1,0h-4.1v4.4h4.9c0.1,0,0.1,0,0.1,0c0,0,0.1,0.1,0.1,0.1c0,0.1,0.1,0.1,0.1,0.2
      C47.6,139.3,47.6,139.4,47.6,139.5z"/>
    <path fill="#222" d="M58.3,128.6c0,0.1,0,0.2,0,0.3c0,0.1,0,0.2-0.1,0.2c0,0.1-0.1,0.1-0.1,0.1c0,0-0.1,0-0.1,0h-3.5v10.7
      c0,0.1,0,0.1,0,0.1c0,0-0.1,0.1-0.1,0.1c-0.1,0-0.1,0-0.3,0.1c-0.1,0-0.2,0-0.4,0c-0.2,0-0.3,0-0.4,0c-0.1,0-0.2,0-0.3-0.1
      c-0.1,0-0.1-0.1-0.1-0.1c0,0,0-0.1,0-0.1v-10.7h-3.5c-0.1,0-0.1,0-0.1,0c0,0-0.1-0.1-0.1-0.1c0-0.1,0-0.1-0.1-0.2
      c0-0.1,0-0.2,0-0.3s0-0.2,0-0.3c0-0.1,0-0.2,0.1-0.2c0-0.1,0.1-0.1,0.1-0.1c0,0,0.1,0,0.1,0H58c0.1,0,0.1,0,0.1,0
      c0,0,0.1,0.1,0.1,0.1c0,0.1,0,0.1,0.1,0.2C58.3,128.3,58.3,128.4,58.3,128.6z"/>
    <path fill="#222" d="M73.2,136.7c0,0.4,0,0.7-0.1,1.1c-0.1,0.3-0.2,0.6-0.4,0.9s-0.4,0.5-0.6,0.7c-0.3,0.2-0.5,0.4-0.8,0.5
      c-0.3,0.1-0.7,0.2-1,0.3c-0.4,0.1-0.8,0.1-1.2,0.1h-3.2c-0.1,0-0.3,0-0.4-0.1c-0.1-0.1-0.2-0.3-0.2-0.5v-11c0-0.2,0.1-0.4,0.2-0.5
      c0.1-0.1,0.3-0.1,0.4-0.1h2.8c0.7,0,1.3,0.1,1.8,0.2s0.9,0.3,1.2,0.6c0.3,0.3,0.6,0.6,0.7,1c0.2,0.4,0.2,0.8,0.2,1.3
      c0,0.3,0,0.6-0.1,0.8s-0.2,0.5-0.3,0.7c-0.1,0.2-0.3,0.4-0.5,0.6c-0.2,0.2-0.4,0.3-0.7,0.4c0.3,0.1,0.7,0.2,0.9,0.3
      c0.3,0.2,0.5,0.4,0.8,0.6c0.2,0.3,0.4,0.6,0.5,0.9C73.1,135.8,73.2,136.2,73.2,136.7z M70.7,131.1c0-0.3,0-0.6-0.1-0.8
      s-0.2-0.4-0.4-0.6c-0.2-0.2-0.4-0.3-0.7-0.4c-0.3-0.1-0.7-0.1-1.1-0.1h-1.7v4h1.9c0.4,0,0.8-0.1,1-0.2c0.3-0.1,0.5-0.3,0.6-0.4
      c0.2-0.2,0.3-0.4,0.4-0.7C70.7,131.7,70.7,131.4,70.7,131.1z M71.5,136.7c0-0.4-0.1-0.7-0.2-1s-0.3-0.5-0.5-0.7s-0.5-0.3-0.8-0.4
      c-0.3-0.1-0.8-0.1-1.3-0.1h-2v4.3h2.4c0.4,0,0.7,0,1-0.1s0.5-0.2,0.7-0.4c0.2-0.2,0.4-0.4,0.5-0.7
      C71.4,137.4,71.5,137.1,71.5,136.7z"/>
    <path fill="#222" d="M82.4,139.5c0,0.1,0,0.2,0,0.3c0,0.1,0,0.2-0.1,0.2c0,0.1-0.1,0.1-0.1,0.1c0,0-0.1,0-0.1,0h-5.4
      c-0.1,0-0.3,0-0.4-0.1c-0.1-0.1-0.2-0.3-0.2-0.5v-11.4c0-0.1,0-0.1,0-0.1s0.1-0.1,0.1-0.1c0.1,0,0.1,0,0.3-0.1c0.1,0,0.2,0,0.4,0
      c0.2,0,0.3,0,0.4,0c0.1,0,0.2,0,0.3,0.1c0.1,0,0.1,0.1,0.1,0.1s0,0.1,0,0.1v10.7H82c0.1,0,0.1,0,0.1,0c0,0,0.1,0.1,0.1,0.1
      c0,0.1,0.1,0.1,0.1,0.2C82.4,139.2,82.4,139.3,82.4,139.5z"/>
    <path fill="#222" d="M94.4,133.9c0,1-0.1,1.9-0.4,2.7c-0.2,0.8-0.6,1.5-1.1,2c-0.5,0.6-1.1,1-1.8,1.3c-0.7,0.3-1.5,0.5-2.5,0.5
      c-0.9,0-1.7-0.1-2.4-0.4c-0.7-0.3-1.2-0.7-1.7-1.2s-0.8-1.2-1-2c-0.2-0.8-0.3-1.7-0.3-2.7c0-1,0.1-1.9,0.4-2.6
      c0.2-0.8,0.6-1.5,1.1-2c0.5-0.6,1.1-1,1.8-1.3c0.7-0.3,1.5-0.5,2.5-0.5c0.9,0,1.7,0.1,2.4,0.4s1.2,0.7,1.7,1.2
      c0.4,0.5,0.8,1.2,1,1.9C94.3,132,94.4,132.9,94.4,133.9z M92.6,134c0-0.7-0.1-1.3-0.2-1.9c-0.1-0.6-0.3-1.1-0.6-1.6
      c-0.3-0.4-0.7-0.8-1.2-1c-0.5-0.2-1.1-0.4-1.8-0.4s-1.3,0.1-1.8,0.4s-0.9,0.6-1.2,1.1c-0.3,0.4-0.5,1-0.6,1.6
      c-0.1,0.6-0.2,1.2-0.2,1.9c0,0.7,0.1,1.4,0.2,2c0.1,0.6,0.3,1.1,0.6,1.6c0.3,0.4,0.7,0.8,1.1,1c0.5,0.2,1.1,0.4,1.8,0.4
      c0.7,0,1.3-0.1,1.8-0.4s0.9-0.6,1.2-1.1c0.3-0.5,0.5-1,0.6-1.6C92.6,135.3,92.6,134.7,92.6,134z"/>
    <path fill="#222" d="M105.5,138.4c0,0.1,0,0.2,0,0.3c0,0.1,0,0.1,0,0.2s0,0.1-0.1,0.2s-0.1,0.1-0.1,0.2
      c-0.1,0.1-0.2,0.2-0.4,0.3c-0.2,0.1-0.5,0.3-0.8,0.4c-0.3,0.1-0.6,0.2-1,0.3c-0.4,0.1-0.8,0.1-1.3,0.1c-0.8,0-1.5-0.1-2.2-0.4
      c-0.6-0.3-1.2-0.7-1.6-1.2c-0.5-0.5-0.8-1.2-1-1.9c-0.2-0.8-0.4-1.6-0.4-2.6c0-1,0.1-1.9,0.4-2.7c0.3-0.8,0.6-1.5,1.1-2
      c0.5-0.6,1-1,1.7-1.3c0.7-0.3,1.4-0.4,2.2-0.4c0.4,0,0.7,0,1,0.1c0.3,0.1,0.6,0.2,0.9,0.3c0.3,0.1,0.5,0.2,0.8,0.4
      c0.2,0.1,0.4,0.2,0.5,0.3c0.1,0.1,0.1,0.2,0.2,0.2c0,0,0,0.1,0.1,0.2c0,0.1,0,0.1,0,0.2c0,0.1,0,0.2,0,0.3c0,0.1,0,0.2,0,0.3
      c0,0.1,0,0.2-0.1,0.2c0,0.1-0.1,0.1-0.1,0.1c0,0-0.1,0-0.1,0c-0.1,0-0.2-0.1-0.4-0.2c-0.2-0.1-0.4-0.3-0.6-0.4
      c-0.3-0.1-0.6-0.3-0.9-0.4c-0.4-0.1-0.8-0.2-1.3-0.2c-0.5,0-1,0.1-1.5,0.3c-0.5,0.2-0.8,0.5-1.2,1c-0.3,0.4-0.6,0.9-0.7,1.6
      c-0.2,0.6-0.3,1.3-0.3,2.1c0,0.8,0.1,1.5,0.3,2.1c0.2,0.6,0.4,1.1,0.7,1.5c0.3,0.4,0.7,0.7,1.2,0.9c0.5,0.2,1,0.3,1.6,0.3
      c0.5,0,0.9-0.1,1.3-0.2s0.7-0.3,0.9-0.4c0.3-0.1,0.5-0.3,0.6-0.4s0.3-0.2,0.4-0.2c0,0,0.1,0,0.1,0c0,0,0.1,0.1,0.1,0.1
      c0,0.1,0,0.1,0,0.2C105.5,138.2,105.5,138.3,105.5,138.4z"/>
    <path fill="#222" d="M116.8,139.9c0,0.1,0,0.1,0,0.1s-0.1,0.1-0.1,0.1c-0.1,0-0.1,0-0.3,0.1c-0.1,0-0.2,0-0.4,0
      c-0.2,0-0.3,0-0.4,0c-0.1,0-0.2,0-0.2-0.1c-0.1,0-0.1-0.1-0.1-0.1s0-0.1,0-0.1v-5.5h-5.6v5.5c0,0.1,0,0.1,0,0.1s-0.1,0.1-0.1,0.1
      c-0.1,0-0.1,0-0.3,0.1c-0.1,0-0.2,0-0.4,0c-0.2,0-0.3,0-0.4,0c-0.1,0-0.2,0-0.3-0.1c-0.1,0-0.1-0.1-0.1-0.1s0-0.1,0-0.1v-11.8
      c0-0.1,0-0.1,0-0.1s0.1-0.1,0.1-0.1c0.1,0,0.1,0,0.3-0.1c0.1,0,0.2,0,0.4,0c0.2,0,0.3,0,0.4,0c0.1,0,0.2,0,0.3,0.1
      c0.1,0,0.1,0.1,0.1,0.1s0,0.1,0,0.1v4.9h5.6v-4.9c0-0.1,0-0.1,0-0.1s0.1-0.1,0.1-0.1c0.1,0,0.1,0,0.2-0.1c0.1,0,0.2,0,0.4,0
      c0.2,0,0.3,0,0.4,0c0.1,0,0.2,0,0.3,0.1c0.1,0,0.1,0.1,0.1,0.1s0,0.1,0,0.1V139.9z"/>
    <path fill="#222" d="M133.3,138.4c0,0.1,0,0.2,0,0.3c0,0.1,0,0.1,0,0.2s0,0.1-0.1,0.2s-0.1,0.1-0.1,0.2
      c-0.1,0.1-0.2,0.2-0.4,0.3c-0.2,0.1-0.5,0.3-0.8,0.4c-0.3,0.1-0.6,0.2-1,0.3c-0.4,0.1-0.8,0.1-1.3,0.1c-0.8,0-1.5-0.1-2.2-0.4
      c-0.6-0.3-1.2-0.7-1.6-1.2c-0.5-0.5-0.8-1.2-1-1.9c-0.2-0.8-0.4-1.6-0.4-2.6c0-1,0.1-1.9,0.4-2.7c0.3-0.8,0.6-1.5,1.1-2
      c0.5-0.6,1-1,1.7-1.3c0.7-0.3,1.4-0.4,2.2-0.4c0.4,0,0.7,0,1,0.1c0.3,0.1,0.6,0.2,0.9,0.3c0.3,0.1,0.5,0.2,0.8,0.4
      c0.2,0.1,0.4,0.2,0.5,0.3c0.1,0.1,0.1,0.2,0.2,0.2c0,0,0,0.1,0.1,0.2c0,0.1,0,0.1,0,0.2c0,0.1,0,0.2,0,0.3c0,0.1,0,0.2,0,0.3
      c0,0.1,0,0.2-0.1,0.2c0,0.1-0.1,0.1-0.1,0.1c0,0-0.1,0-0.1,0c-0.1,0-0.2-0.1-0.4-0.2c-0.2-0.1-0.4-0.3-0.6-0.4
      c-0.3-0.1-0.6-0.3-0.9-0.4c-0.4-0.1-0.8-0.2-1.3-0.2c-0.5,0-1,0.1-1.5,0.3c-0.5,0.2-0.8,0.5-1.2,1c-0.3,0.4-0.6,0.9-0.7,1.6
      c-0.2,0.6-0.3,1.3-0.3,2.1c0,0.8,0.1,1.5,0.3,2.1c0.2,0.6,0.4,1.1,0.7,1.5c0.3,0.4,0.7,0.7,1.2,0.9c0.5,0.2,1,0.3,1.6,0.3
      c0.5,0,0.9-0.1,1.3-0.2s0.7-0.3,0.9-0.4c0.3-0.1,0.5-0.3,0.6-0.4s0.3-0.2,0.4-0.2c0,0,0.1,0,0.1,0c0,0,0.1,0.1,0.1,0.1
      c0,0.1,0,0.1,0,0.2C133.3,138.2,133.3,138.3,133.3,138.4z"/>
    <path fill="#222" d="M145,139.6c0.1,0.1,0.1,0.3,0.1,0.3c0,0.1,0,0.2-0.1,0.2c-0.1,0-0.1,0.1-0.3,0.1c-0.1,0-0.3,0-0.5,0
      c-0.2,0-0.4,0-0.5,0c-0.1,0-0.2,0-0.3,0c-0.1,0-0.1-0.1-0.1-0.1c0,0-0.1-0.1-0.1-0.1l-1.1-3h-5.1l-1,3c0,0.1,0,0.1-0.1,0.1
      c0,0-0.1,0.1-0.1,0.1c-0.1,0-0.1,0-0.3,0.1c-0.1,0-0.3,0-0.4,0c-0.2,0-0.3,0-0.5,0c-0.1,0-0.2,0-0.2-0.1c0,0-0.1-0.1-0.1-0.2
      c0-0.1,0-0.2,0.1-0.3l4.1-11.4c0-0.1,0.1-0.1,0.1-0.2s0.1-0.1,0.2-0.1c0.1,0,0.2,0,0.3-0.1c0.1,0,0.3,0,0.5,0c0.2,0,0.4,0,0.5,0
      c0.1,0,0.2,0,0.3,0.1c0.1,0,0.1,0.1,0.2,0.1c0,0,0.1,0.1,0.1,0.2L145,139.6z M139.7,129.5L139.7,129.5l-2.1,6.1h4.3L139.7,129.5z"
      />
    <path fill="#222" d="M156.7,139.5c0,0.1,0,0.2-0.1,0.3c0,0.1-0.1,0.2-0.2,0.2c-0.1,0.1-0.1,0.1-0.2,0.1c-0.1,0-0.2,0-0.3,0
      h-0.5c-0.2,0-0.3,0-0.4-0.1c-0.1,0-0.2-0.1-0.4-0.2c-0.1-0.1-0.2-0.2-0.3-0.4s-0.2-0.4-0.4-0.6l-3.8-7c-0.2-0.4-0.4-0.7-0.6-1.1
      c-0.2-0.4-0.4-0.8-0.6-1.2h0c0,0.5,0,0.9,0,1.4c0,0.5,0,0.9,0,1.4v7.4c0,0,0,0.1,0,0.1c0,0-0.1,0.1-0.1,0.1c-0.1,0-0.1,0-0.3,0.1
      c-0.1,0-0.2,0-0.4,0c-0.2,0-0.3,0-0.4,0c-0.1,0-0.2,0-0.2-0.1c-0.1,0-0.1-0.1-0.1-0.1c0,0,0-0.1,0-0.1v-11.4
      c0-0.3,0.1-0.4,0.2-0.5c0.1-0.1,0.3-0.2,0.5-0.2h0.8c0.2,0,0.3,0,0.5,0c0.1,0,0.2,0.1,0.3,0.2c0.1,0.1,0.2,0.2,0.3,0.3
      c0.1,0.1,0.2,0.3,0.3,0.5l2.9,5.4c0.2,0.3,0.3,0.7,0.5,1c0.2,0.3,0.3,0.6,0.5,0.9c0.2,0.3,0.3,0.6,0.5,0.9
      c0.2,0.3,0.3,0.6,0.4,0.9h0c0-0.5,0-1,0-1.6c0-0.5,0-1.1,0-1.6v-6.7c0,0,0-0.1,0-0.1c0,0,0.1-0.1,0.1-0.1c0.1,0,0.1,0,0.3-0.1
      c0.1,0,0.2,0,0.4,0c0.1,0,0.3,0,0.4,0c0.1,0,0.2,0,0.3,0.1c0.1,0,0.1,0.1,0.1,0.1c0,0,0,0.1,0,0.1V139.5z"/>
    <path fill="#222" d="M169.5,139.6c0.1,0.1,0.1,0.3,0.1,0.3c0,0.1,0,0.2-0.1,0.2c-0.1,0-0.1,0.1-0.3,0.1s-0.3,0-0.5,0
      c-0.2,0-0.4,0-0.5,0c-0.1,0-0.2,0-0.3,0c-0.1,0-0.1-0.1-0.1-0.1c0,0-0.1-0.1-0.1-0.1l-1.1-3h-5.1l-1,3c0,0.1,0,0.1-0.1,0.1
      c0,0-0.1,0.1-0.1,0.1c-0.1,0-0.1,0-0.3,0.1c-0.1,0-0.3,0-0.4,0c-0.2,0-0.3,0-0.5,0c-0.1,0-0.2,0-0.2-0.1c0,0-0.1-0.1-0.1-0.2
      c0-0.1,0-0.2,0.1-0.3l4.1-11.4c0-0.1,0.1-0.1,0.1-0.2s0.1-0.1,0.2-0.1c0.1,0,0.2,0,0.3-0.1c0.1,0,0.3,0,0.5,0c0.2,0,0.4,0,0.5,0
      c0.1,0,0.2,0,0.3,0.1c0.1,0,0.1,0.1,0.2,0.1c0,0,0.1,0.1,0.1,0.2L169.5,139.6z M164.2,129.5L164.2,129.5l-2.1,6.1h4.3L164.2,129.5
      z"/>
    <path fill="#222" d="M181.3,133.8c0,1.1-0.1,2-0.4,2.8c-0.3,0.8-0.7,1.5-1.2,2c-0.5,0.5-1.2,0.9-1.9,1.2
      c-0.8,0.3-1.7,0.4-2.7,0.4h-2.6c-0.1,0-0.3,0-0.4-0.1c-0.1-0.1-0.2-0.3-0.2-0.5v-11c0-0.2,0.1-0.4,0.2-0.5
      c0.1-0.1,0.3-0.1,0.4-0.1h2.8c1.1,0,2,0.1,2.7,0.4c0.7,0.3,1.4,0.7,1.9,1.2c0.5,0.5,0.9,1.1,1.1,1.9
      C181.2,132.1,181.3,132.9,181.3,133.8z M179.6,133.9c0-0.7-0.1-1.3-0.2-1.9c-0.2-0.6-0.4-1.1-0.8-1.5c-0.4-0.4-0.8-0.7-1.3-1
      c-0.5-0.2-1.2-0.4-2.1-0.4h-1.7v9.6h1.7c0.8,0,1.5-0.1,2-0.3c0.5-0.2,1-0.5,1.4-0.9s0.6-0.9,0.8-1.5
      C179.5,135.5,179.6,134.7,179.6,133.9z"/>
    <path fill="#222" d="M193,139.6c0.1,0.1,0.1,0.3,0.1,0.3c0,0.1,0,0.2-0.1,0.2c-0.1,0-0.1,0.1-0.3,0.1s-0.3,0-0.5,0
      c-0.2,0-0.4,0-0.5,0c-0.1,0-0.2,0-0.3,0c-0.1,0-0.1-0.1-0.1-0.1c0,0-0.1-0.1-0.1-0.1l-1.1-3h-5.1l-1,3c0,0.1,0,0.1-0.1,0.1
      c0,0-0.1,0.1-0.1,0.1c-0.1,0-0.1,0-0.3,0.1c-0.1,0-0.3,0-0.4,0c-0.2,0-0.3,0-0.5,0c-0.1,0-0.2,0-0.2-0.1c0,0-0.1-0.1-0.1-0.2
      c0-0.1,0-0.2,0.1-0.3l4.1-11.4c0-0.1,0.1-0.1,0.1-0.2s0.1-0.1,0.2-0.1c0.1,0,0.2,0,0.3-0.1c0.1,0,0.3,0,0.5,0c0.2,0,0.4,0,0.5,0
      c0.1,0,0.2,0,0.3,0.1c0.1,0,0.1,0.1,0.2,0.1c0,0,0.1,0.1,0.1,0.2L193,139.6z M187.7,129.5L187.7,129.5l-2.1,6.1h4.3L187.7,129.5z"
      />
  </g>
  <g>
    <path fill="#222" d="M174.5,54.3c-0.6-0.1-1.1-0.7-1.6-1c4.6-3.2,9.7-5.8,13.7-9.5c15.1-14.3,10.3-35.2-9.5-41.3
      c-5.3-1.6-11-2.2-16.6-2.4C136.3-0.5,115.2,7.5,97.6,25c-1.5-1.3-2.6-2.4-3.8-3.5C73.7,3.4,50-2.7,23.7,1.1
      C12.6,2.7,3.6,7.9,0.6,19.6C-2,29.9,3.8,41.5,14.2,48.1c2.7,1.7,5.6,3.1,8.9,4.9c-1.3,0.7-2.1,1.2-2.9,1.5
      C4.1,59.9-1.7,70,2.1,86.3c3.9,17.1,21.3,31.4,42.6,33c16.3,1.2,32.8,0.2,50.3,0.2c-2.3-2.1-3.5-4.1-5.1-4.5
      c-11.1-3.2-13.5-12.8-16-22.1c-5-18.5-9.5-37.1-14.1-55.6c-2.4-9.5-2.3-9.6,4.8-16.8C55.9,19,48,17.7,40,16.2
      c3.2,12.8,6.2,24.9,9.3,37.1c-17.4,2-31.3-7.6-34.7-22.8C11.8,18.2,17.9,8.3,30.4,6.4c6.4-1,13.1-1,19.5-0.1
      C67.3,8.9,82,16.5,93,28.8c-3.7,8.8-7.9,16.3-10.1,24.2c-3.3,12-3.2,24.1,4.8,34.8c6.9,9.2,13.7,9.5,19.8-0.3
      c3.5-5.7,5.8-12.8,6.5-19.5c1.5-14.3-4.6-26.8-12.4-38.2c14.6-17.2,40.6-27.1,62-23.8c9.2,1.4,15.5,6.6,17.2,14.2
      c4.3,18.6-15.6,37.7-34.8,32.6c3.1-12.1,6.1-24.1,9.3-36.8c-8.6,1.7-16.4,3.2-22.9,4.5c2,4.5,4.8,7.8,4.2,10.3
      c-5.8,23.8-12,47.5-18.4,71.2c-1.6,5.8-5.3,10.2-11.4,12.3c-2.2,0.8-4,2.9-7.5,5.6c16,0,29.8,0.2,43.6,0
      c19.9-0.3,36.6-7.3,47-25.2C197.9,81.1,196.8,59.2,174.5,54.3z M36.4,60.6c14.6-1.4,14.3-1.3,18,12.6c3.5,13.2,7.9,26.1,11.9,39.2
      c-23.5,8-45.6-5.2-48-29.8C17.1,70.4,24.2,61.7,36.4,60.6z M108.2,62.3c0.1,2.3-0.2,4.8-0.8,6.8c-2,7-3,12.4-10,12.4
      c-5.3,0-9.2-7.5-10.1-13.5C86,57.6,89.7,45.6,97.9,34.9C104.1,43.4,107.6,52.3,108.2,62.3z M170.4,100.7
      c-8.8,12.9-25.4,17-41.1,11.7c4.6-15.7,9.4-31.2,13.5-46.8c1.2-4.7,3.3-5.8,7.7-5.6c9.7,0.5,19.9,0.3,24.6,11
      C179.8,81.6,176.6,91.7,170.4,100.7z"/>
  </g>
</g>
</svg>
